<svg width="32" height="32" viewBox="0 0 32 32" fill="none" xmlns="http://www.w3.org/2000/svg">
<path d="M20.0003 29.3334H12.0003C5.33366 29.3334 2.66699 26.6667 2.66699 20.0001V12.0001C2.66699 5.33341 5.33366 2.66675 12.0003 2.66675H20.0003C26.667 2.66675 29.3337 5.33341 29.3337 12.0001V20.0001C29.3337 26.6667 26.667 29.3334 20.0003 29.3334Z" stroke="#F2F2F2" stroke-width="3" stroke-linecap="round" stroke-linejoin="round"/>
<path d="M8.20739 23V12.0909H11.233V23H8.20739ZM9.72727 10.6847C9.27746 10.6847 8.89157 10.5355 8.5696 10.2372C8.25237 9.93419 8.09375 9.57197 8.09375 9.15057C8.09375 8.7339 8.25237 8.37642 8.5696 8.07812C8.89157 7.77509 9.27746 7.62358 9.72727 7.62358C10.1771 7.62358 10.5606 7.77509 10.8778 8.07812C11.1998 8.37642 11.3608 8.7339 11.3608 9.15057C11.3608 9.57197 11.1998 9.93419 10.8778 10.2372C10.5606 10.5355 10.1771 10.6847 9.72727 10.6847ZM16.6822 16.6932V23H13.6566V12.0909H16.5401V14.0156H16.668C16.9094 13.3812 17.3143 12.8793 17.8825 12.5099C18.4506 12.1359 19.1396 11.9489 19.9492 11.9489C20.7068 11.9489 21.3673 12.1146 21.9308 12.446C22.4942 12.7775 22.9322 13.2509 23.2447 13.8665C23.5572 14.4773 23.7134 15.2064 23.7134 16.054V23H20.6879V16.5938C20.6926 15.9261 20.5221 15.4053 20.1765 15.0312C19.8308 14.6525 19.355 14.4631 18.7489 14.4631C18.3417 14.4631 17.9819 14.5507 17.6694 14.7259C17.3616 14.901 17.1201 15.1567 16.945 15.4929C16.7745 15.8243 16.6869 16.2244 16.6822 16.6932Z" fill="#F2F2F2"/>
</svg>
